<svg width="512" height="399" viewBox="0 0 512 399" fill="none" xmlns="http://www.w3.org/2000/svg">
<g clip-path="url(#clip0_3_2)">
<path d="M83.1477 1.59798C83.5008 1.0658 83.7505 0.425134 84.3017 0.0625319C88.3809 -0.220019 92.4129 0.505186 96.4073 1.23064C102.771 2.74639 109.01 4.60952 115.067 7.13003C120.949 9.57773 126.621 12.609 132.055 15.9307C135.676 18.144 139.199 20.5159 142.626 23.018C152.056 29.5929 160.572 37.3639 168.754 45.4083C169.475 46.0489 170.196 47.2687 171.326 46.6941C179.093 43.7494 187.012 41.2054 195.04 39.0752C205.605 36.2721 216.112 34.0646 227.016 33.2561C235.096 32.6568 243.211 32.5192 251.306 32.8439C254.848 32.986 258.578 33.6728 262.042 33.0489C265.844 32.3638 269.805 32.5718 273.664 32.5788C283.335 32.4611 292.925 33.9634 302.416 35.6921C313.665 37.9622 324.777 40.9718 335.582 44.8574C338.06 45.5826 340.368 46.8968 342.926 47.3348C346.086 44.6077 348.8 41.3767 352.003 38.6782C355.573 35.6404 358.903 32.3294 362.672 29.5224C370.175 23.3337 378.188 17.748 386.718 13.0569C395.281 8.13979 404.5 4.36264 414.085 1.98427C419.173 0.872776 424.344 -0.285856 429.582 0.0767465C435.31 8.52608 439.804 17.9081 442.272 27.841C443.061 31.0162 443.75 34.1569 444.142 37.4046C444.551 40.786 444.812 44.1851 444.924 47.5891C445.033 50.9251 445.04 54.2736 444.833 57.6048C444.421 64.2115 443.951 70.7186 442.457 77.2038C442.078 78.8485 441.669 80.5021 441.265 82.1299C440.592 84.8401 439.755 87.5041 439.036 90.1939C434.514 104.79 428.136 118.815 420.195 131.866C419.672 132.469 420.044 133.222 420.256 133.872C423.016 142.472 426.436 150.978 431.674 158.392C434.269 162.305 437.722 165.546 441.165 168.697C448.052 174.249 457.039 177.028 465.848 176.736C470.53 176.722 475.16 175.695 479.659 174.447C485.236 172.945 490.234 169.978 495.311 167.317C496.612 166.653 497.883 165.621 499.442 165.777C500.188 165.852 500.358 169.972 500.439 170.532C501.305 176.515 502.506 182.522 502.883 188.562C503.121 192.386 503.126 196.225 502.894 200.049C502.119 212.823 498.986 225.439 493.74 237.109C492.191 240.555 490.464 243.92 488.58 247.195C487.883 248.372 487.144 249.545 486.668 250.84C488.825 250.138 490.653 248.721 492.669 247.703C499.16 244.322 505.504 240.658 512 237.299C510.662 241.425 508.326 245.146 506.432 249.032C502.768 256.662 498.834 264.159 495.028 271.719C486.253 287.944 475.419 303.128 462.329 316.16C445.098 333.633 424.01 347.349 400.915 355.708C399.605 356.203 398.202 356.514 397.01 357.272C396.953 357.442 396.841 357.771 396.784 357.941C399.249 358.048 401.616 358.151 404.061 358.488C411.698 359.54 419.381 360.31 427.054 361.144C427.303 361.171 427.567 361.204 427.76 361.362C428.819 362.232 426.139 362.622 425.696 362.753C424.456 363.119 423.226 363.516 421.999 363.923C419.545 364.738 417.106 365.598 414.632 366.352C404.811 369.494 395.037 372.786 385.235 375.979C380.058 377.557 374.796 378.909 369.426 379.587C359.478 381.72 349.252 381.231 339.143 381.245C335.997 381.146 332.827 381.32 329.722 380.741C325.756 380.623 321.861 379.841 317.923 379.587C316.444 379.262 315.761 380.769 314.871 381.617C311.757 384.801 308.747 388.182 304.969 390.613C302.251 392.6 299.274 394.187 296.208 395.567C295.553 395.85 294.62 396.076 294.079 395.483C291.686 393.354 289.42 391.079 286.882 389.129C283.862 391.126 280.994 393.41 277.626 394.818C273.228 396.657 268.896 398.016 264.148 398.636C259.366 399.261 254.504 399.261 249.721 398.647C244.511 397.979 239.519 396.613 234.836 394.224C232.054 392.805 229.588 390.867 227.022 389.106C224.266 391.027 222.029 393.575 219.429 395.685C218.095 396.264 216.828 395.115 215.646 394.635C208.665 391.451 202.73 386.294 197.85 380.43C197.393 380.011 197.078 379.337 196.432 379.229C193.564 379.13 190.808 380.176 187.949 380.232C183.851 380.496 179.8 381.245 175.683 381.202C168.617 381.297 161.552 381.311 154.486 381.155C145.24 380.364 136.012 378.857 127.138 376.083C112.79 371.463 98.5505 366.536 84.1368 362.147C84.1134 361.982 84.0615 361.647 84.0378 361.483C89.1239 360.715 94.2311 360.097 99.3391 359.498C104.281 358.918 109.195 358.149 114.158 357.987C114.509 357.976 114.86 357.962 115.211 357.941C115.159 357.771 115.051 357.437 114.994 357.267C110.421 355.308 105.635 353.782 101.075 351.747C85.5071 344.748 70.9004 335.513 58.1447 324.167C51.6489 318.444 45.6338 312.204 39.9674 305.667C33.5282 298.126 27.871 289.96 22.6096 281.567C15.3415 269.627 9.63262 256.836 3.19824 244.444C2.06315 242.099 0.706341 239.819 0 237.294C6.66983 240.789 13.2504 244.486 19.9107 248.023C21.7147 248.961 23.3728 250.223 25.3325 250.84C23.9288 247.689 21.9175 244.849 20.4714 241.712C17.5839 236.15 15.337 230.282 13.4295 224.319C11.9414 219.668 10.6971 214.958 9.9192 210.13C9.51689 207.633 9.37523 205.031 9.2141 202.508C8.95172 198.396 9.01981 194.276 9.08167 190.159C9.19465 181.908 11.3755 173.901 12.558 165.777C13.1184 165.781 13.712 165.772 14.2395 166.021C19.3456 168.621 24.268 171.668 29.6895 173.609C38.6582 176.67 48.531 177.98 57.768 175.347C63.5525 173.684 69.073 170.783 73.2841 166.431C82.6436 157.817 87.9145 145.849 91.7205 133.943C92.055 132.648 92.9122 131.235 92.38 129.916C81.0985 110.606 72.7706 89.3602 69.5818 67.1584C68.748 57.2584 68.5879 47.2737 69.577 37.3831C70.7924 29.4989 72.9072 21.7232 76.1858 14.4417C78.117 9.95778 80.6605 5.78511 83.1477 1.59798ZM415.022 32.4C409.587 35.1222 404.24 38.0612 399.308 41.6264C393.143 45.8841 387.839 51.2296 382.742 56.6883C376.6 63.8002 371.22 71.557 364.767 78.4006C363.934 78.6031 363.383 79.4697 362.69 79.9548C360.292 82.2059 357.028 83.4965 353.745 83.4354C350.104 82.9972 346.689 81.2735 343.9 78.9328C340.905 76.2058 338.092 73.182 336.138 69.6074C338.177 66.3482 340.989 63.6449 343.434 60.687C344.018 59.8533 345.243 59.1986 345.092 58.0495C325.162 49.8121 304.117 44.019 282.609 42.0409C274.126 41.4663 265.449 41.2119 257.144 43.3501C253.112 42.6718 249.052 41.7912 244.926 41.8855C239.909 41.9421 234.85 41.5982 229.881 42.3942C227.549 42.5262 225.208 42.5262 222.914 42.9735C204.285 45.4838 186.164 51.0037 168.773 58.026C168.556 58.8455 169.249 59.4438 169.706 60.0231C172.207 62.8536 174.873 65.5619 177.129 68.5996C178.142 69.8759 176.569 71.1146 175.947 72.179C172.179 77.5011 166.95 82.696 160.144 83.4212C156.762 83.5202 153.271 82.2201 150.93 79.738C150.341 79.2954 149.875 78.5088 149.131 78.3911C141.406 70.5964 135.617 61.1298 127.906 53.3115C119.455 44.3818 109.21 37.1193 97.9477 32.1927C95.7431 35.2871 95.2438 39.2291 94.4808 42.8698C93.4774 49.6802 93.9204 56.6083 94.0286 63.4658C95.4652 80.1196 99.4691 96.5003 105.117 112.217C106.36 115.377 107.237 118.745 108.984 121.674C108.951 123.445 109.756 125.612 108.315 127.039C107.312 128.315 105.432 128.212 104.283 129.196C101.033 141.3 96.5579 153.305 89.29 163.61C84.0473 171.202 76.9724 177.607 68.5737 181.517C64.3391 183.721 59.6192 184.63 54.9888 185.595C50.4809 185.901 45.9496 185.817 41.4416 185.657C35.9917 184.856 30.556 183.693 25.4405 181.601C24.0415 181.05 22.7321 180.268 21.267 179.906C19.8304 185.883 20.0329 192.071 19.8823 198.17C19.5715 204.114 21.3755 209.869 22.5106 215.639L22.7274 215.281C22.8593 216.906 23.4574 218.441 23.9238 220C28.0736 233.258 34.9038 245.546 43.1469 256.685C45.7328 260.457 48.4178 264.169 51.4137 267.63C51.2678 267.866 50.9757 268.337 50.8249 268.572C45.4597 269.029 40.3018 267.23 35.2759 265.61C31.385 264.239 27.6732 262.412 24.0652 260.429C24.6304 262.553 25.9493 264.357 26.9574 266.288C31.9128 275.505 37.6077 284.331 44.0326 292.592C46.3973 295.701 49.049 298.569 51.5127 301.602C69.5771 321.84 92.705 337.736 118.494 346.359C129.145 350.118 140.27 352.671 151.552 353.434C151.556 354.456 150.666 355.068 150.011 355.727C148.203 357.418 146.097 358.737 144.043 360.107C140.317 362.622 135.941 363.969 131.589 364.912C131.613 365.128 131.66 365.561 131.683 365.778C144.84 369.772 158.697 370.761 172.386 370.389C176.168 370.493 179.904 369.833 183.677 369.715C185.678 369.404 187.756 369.536 189.715 368.957C189.654 368.392 189.489 367.855 189.254 367.365C185.052 359.123 182.527 349.995 181.882 340.783C179.042 340.473 176.182 340.75 173.337 340.637C168.114 340.661 162.927 340.001 157.76 339.323C149.475 337.976 141.222 336.177 133.356 333.21C131.26 332.343 128.857 331.91 127.171 330.304C133.064 330.417 138.815 327.855 142.941 323.701C142.97 323.446 143.026 322.942 143.05 322.693C142.753 322.594 142.155 322.396 141.858 322.297C126.531 314.211 112.475 303.769 100.129 291.622C93.2941 284.61 86.7702 277.281 80.9715 269.388C70.4156 254.9 61.5741 239.042 55.6767 222.087C57.0003 221.654 58.437 222.012 59.8125 221.936C67.8813 221.673 75.8184 219.549 83.1619 216.228C91.1506 212.498 98.7627 207.713 104.877 201.308C110.063 196.32 114.283 190.112 116.125 183.099C116.94 180.17 116.492 177.118 116.695 174.141C120.134 173.341 123.662 173.039 127.143 172.516C133.897 172.375 140.718 171.998 147.407 173.096C156.3 174.372 164.948 177.207 173.017 181.14C181.298 185.445 189.178 190.715 195.716 197.412C196.272 197.85 196.753 198.736 197.615 198.481C196.809 194.511 196.847 190.432 197.04 186.41C197.059 184.394 197.799 182.492 198.698 180.721C199.009 180.08 199.358 179.219 200.248 179.364C203.63 187.729 208.477 195.5 214.337 202.381C218.934 207.425 223.856 212.427 230.051 215.498C231.407 216.101 232.768 217.081 234.337 216.817C239.222 208.315 242.317 198.948 245.095 189.589C247.804 179.892 250.051 170.058 251.841 160.153L252.001 160.549C252.425 158.429 252.665 156.282 253.047 154.158C253.626 149.49 254.841 144.917 255.195 140.221C255.51 138.182 255.995 136.166 256.056 134.098C256.198 133.147 256.141 131.866 257.206 131.456C257.672 132.77 257.828 134.164 257.875 135.558C258.789 142.642 260.013 149.683 261.224 156.724C264.196 172.45 267.611 188.186 273.193 203.224C275.025 207.872 276.82 212.615 279.519 216.84C280.268 216.887 281.045 216.807 281.738 216.477C285.073 215.041 288.158 213.063 290.96 210.764C297.852 204.99 303.589 197.93 308.172 190.216C310.146 186.702 312.162 183.151 313.25 179.242C313.438 179.209 313.82 179.133 314.009 179.096C315.422 180.758 316.105 182.934 316.618 185.03C317.221 189.509 316.953 194.073 316.232 198.524C317.066 198.627 317.542 197.812 318.116 197.365C332.337 183.193 351.621 174.151 371.635 172.464C380.19 172.3 388.951 171.96 397.241 174.405C397.269 177.344 396.949 180.353 397.731 183.231C399.243 188.911 402.286 194.125 406.224 198.463C411.857 205.084 419.041 210.246 426.7 214.287C435.127 218.752 444.51 221.625 454.072 221.936C455.395 222.068 456.898 221.545 458.113 222.153C456.785 226.292 455.065 230.296 453.318 234.271C445.71 251.212 435.593 267.013 423.459 281.063C411.424 295.173 397.076 307.282 381.296 317.003C378.347 318.863 375.182 320.366 372.28 322.283C371.621 322.019 371.051 322.664 370.547 322.98C372.04 325.339 374.584 326.733 376.948 328.08C379.888 329.804 383.355 330.214 386.704 330.313C385.653 331.349 384.221 331.778 382.888 332.31C371.282 336.68 359.049 339.407 346.684 340.364C341.809 340.9 336.882 340.425 332.002 340.773C331.333 349.152 329.129 357.422 325.657 365.076C325.125 366.432 324.07 367.704 324.23 369.244C329.501 369.743 334.795 369.786 340.062 370.356C351.254 370.619 362.563 370.421 373.515 367.859C376.501 367.082 379.681 366.8 382.465 365.392C382.276 365.25 381.909 364.963 381.725 364.822C375.192 363.503 369.111 360.314 364.085 355.972C363.359 355.237 362.229 354.606 362.332 353.434C376.732 352.525 390.722 348.404 404.08 343.115C422.008 335.748 438.532 324.982 452.513 311.559C458.029 306.684 462.762 301.032 467.52 295.442C473.964 287.252 479.969 278.689 485 269.552C486.573 266.5 488.552 263.642 489.824 260.444C486.39 262.196 482.984 264.004 479.343 265.314C473.836 267.452 467.944 269.105 461.98 268.54C461.929 268.337 461.82 267.932 461.764 267.73C462.315 267.127 462.904 266.557 463.441 265.945C469.234 258.635 474.896 251.179 479.64 243.135C484.642 234.478 488.58 225.214 491.34 215.606C492.042 214.16 492.433 212.592 492.782 211.029C493.969 205.631 495 200.069 494.091 194.54C493.733 192.627 493.936 190.673 493.705 188.751C493.267 185.803 493.69 182.709 492.504 179.902C491.142 180.227 489.927 180.947 488.646 181.475C483.615 183.679 478.151 184.545 472.805 185.605C468.598 185.883 464.378 185.803 460.176 185.704C451.057 184.645 442.216 181.018 435.103 175.187C428.287 169.578 423.082 162.282 419.007 154.511C414.702 146.542 411.975 137.843 409.521 129.168C407.91 128.344 405.799 128.019 404.97 126.196C403.977 124.712 404.707 122.984 405.102 121.444C410.114 109.58 413.873 97.1836 416.6 84.6037C418.376 75.4526 419.997 66.2168 419.978 56.8679C420.147 48.5034 419.832 39.7762 416.054 32.1321C415.682 32.1269 415.338 32.2164 415.022 32.4ZM330.509 245.118C322.586 247.628 314.569 250.43 307.843 255.451C307.405 255.682 307.113 256.2 307.395 256.676C311.328 259.487 315.389 262.294 320.047 263.754C324.122 264.913 328.597 264.682 332.539 263.114C336.449 261.541 340.457 260.067 343.915 257.594C352.016 252.022 359.317 245.4 366.581 238.802C366.666 238.496 366.84 237.888 366.929 237.582C354.645 239.292 342.421 241.632 330.509 245.118ZM147.138 237.803C146.658 238.853 147.845 239.348 148.457 239.97C155.645 246.337 162.744 252.884 170.77 258.206C173.879 260.335 177.478 261.54 180.926 262.996C185.971 265.087 191.906 264.993 196.814 262.567C200.196 260.919 203.493 258.988 206.353 256.534C206.268 255.644 205.463 255.177 204.836 254.692C201.633 252.347 198.02 250.642 194.384 249.088C183.644 244.647 172.273 241.985 160.879 239.847C156.319 239.056 151.764 238.1 147.138 237.803ZM247.818 244.595C242.269 245.683 236.791 247.402 231.821 250.133C233.296 252.097 235.641 253.327 236.711 255.653C233.823 257.278 231.411 259.591 229.08 261.908C219.447 271.172 213.418 283.479 209.188 295.992C207.982 300.198 206.508 304.371 205.98 308.737C205.476 308.699 204.817 308.713 204.704 308.092C202.933 303.669 201.623 299.078 200.412 294.476C199.899 293.105 199.871 291.65 199.772 290.218C199.588 290.242 199.221 290.284 199.037 290.308C198.293 291.292 198.119 292.559 197.695 293.699C193.681 305.911 190.563 318.562 190.158 331.453C190.365 333.972 190.535 336.502 190.997 338.988C190.53 343.59 191.755 348.102 192.923 352.51C196.649 365.575 204.675 377.703 216.221 385.088C216.743 385.488 217.572 385.756 218.048 385.121C224.483 379.313 231.901 374.575 239.952 371.344C245.618 369.305 251.563 367.595 257.644 367.892C261.191 367.746 264.658 368.617 268.073 369.479C277.974 372.206 287.107 377.453 294.733 384.297C295.463 384.815 296.302 386.053 297.277 385.229C309.326 377.774 317.494 365.085 321.121 351.554C322.18 347.461 323.306 343.256 322.831 338.989C323.839 333.021 323.561 326.889 322.755 320.912C321.352 311.469 318.968 302.186 315.906 293.153C315.567 292.187 315.501 291.024 314.564 290.431C313.344 293.676 312.816 297.152 311.742 300.458C311.026 302.832 309.99 305.111 309.486 307.551C309.232 307.631 308.723 307.786 308.469 307.862C308.111 307.598 307.767 307.334 307.437 307.065C307.385 305.737 306.971 304.47 306.674 303.194C304.244 293.963 300.918 284.911 296.057 276.668C291.488 268.582 285.275 261.371 277.724 255.936C279.25 253.854 281.389 252.357 283.052 250.411C282.811 249.597 281.709 249.465 281.073 249.046C275.213 246.248 268.854 244.496 262.373 244.016C257.531 243.234 252.627 243.893 247.818 244.595Z" fill="#171730" stroke="#171730"/>
<path d="M415.017 32.3999C415.333 32.2163 415.677 32.1268 416.049 32.1313C419.827 39.7753 420.142 48.5025 419.973 56.867C419.992 66.2159 418.371 75.4518 416.595 84.6029C413.868 97.1827 410.109 109.579 405.097 121.443C404.74 121.688 404.377 121.918 404.014 122.14C400.877 119.46 399.365 115.353 398.606 111.402C398.022 107.384 398.05 103.159 399.426 99.2972C400.005 97.6064 401.051 96.1371 401.791 94.5263C399.77 92.7836 397.033 92.2138 394.499 91.6345C391.786 91.1634 388.936 91.6345 386.313 90.6831C386.741 86.2042 388.56 81.9983 390.316 77.9054C390.585 77.2084 390.802 76.4877 390.952 75.7625C382.803 75.0278 374.466 75.8755 366.651 78.3247C366.034 78.5272 365.389 78.4471 364.762 78.4C371.216 71.5567 376.595 63.7996 382.737 56.6877C387.834 51.229 393.138 45.8835 399.304 41.6258C404.235 38.0611 409.582 35.1221 415.017 32.3999Z" fill="white" stroke="white"/>
<path d="M97.9472 32.1936C109.21 37.1202 119.455 44.3824 127.905 53.3123C135.616 61.1305 141.405 70.5973 149.13 78.392C148.579 78.5474 148.009 78.7783 147.439 78.571C139.196 76.3057 130.548 74.8784 121.994 75.7735C122.512 78.4015 123.991 80.7045 124.777 83.2574C125.512 85.6453 126.539 88.0426 126.483 90.5905C123.28 91.5606 119.846 91.0946 116.633 92.0412C114.712 92.611 112.644 93.1245 111.136 94.528C112.106 96.7181 113.515 98.7339 114.014 101.117C115.366 107.084 114.678 113.645 111.588 118.986C110.986 120.107 109.996 120.931 108.984 121.675C107.236 118.746 106.36 115.378 105.116 112.218C99.4687 96.5014 95.4648 80.1207 94.0282 63.4669C93.9199 56.6094 93.477 49.6813 94.4804 42.8709C95.2436 39.2302 95.7429 35.2879 97.9472 32.1936Z" fill="white" stroke="white"/>
<path d="M257.147 43.3499C265.451 41.2117 274.128 41.466 282.611 42.0406C304.119 44.0187 325.165 49.8119 345.094 58.0492C345.245 59.1984 344.02 59.853 343.436 60.6867C340.992 63.6444 338.179 66.3479 336.14 69.6071C338.095 73.1818 340.907 76.2055 343.903 78.9325C346.691 81.2732 350.106 82.997 353.747 83.4351C357.03 83.4965 360.295 82.2059 362.692 79.9545C363.385 79.4695 363.936 78.6028 364.77 78.4003C365.396 78.4475 366.041 78.5275 366.658 78.325C374.473 75.8758 382.81 75.0282 390.959 75.7629C390.809 76.4881 390.592 77.2088 390.324 77.9058C388.567 81.9987 386.749 86.2045 386.32 90.6834C388.943 91.6348 391.793 91.1637 394.506 91.6348C397.041 92.2141 399.777 92.784 401.798 94.5267C401.058 96.1374 400.013 97.6068 399.433 99.2976C398.058 103.16 398.03 107.384 398.614 111.402C399.372 115.353 400.884 119.46 404.021 122.14C404.384 121.919 404.747 121.688 405.105 121.443C404.709 122.983 403.979 124.712 404.973 126.196C405.802 128.018 407.912 128.343 409.523 129.167C411.977 137.843 414.704 146.542 419.01 154.511C423.084 162.282 428.289 169.578 435.105 175.187C442.218 181.018 451.059 184.644 460.179 185.704C464.38 185.803 468.601 185.883 472.807 185.605C478.153 184.545 483.617 183.678 488.648 181.474C489.929 180.947 491.145 180.226 492.506 179.901C493.693 182.708 493.269 185.802 493.707 188.751C493.938 190.672 493.735 192.627 494.093 194.539C495.003 200.068 493.971 205.631 492.784 211.028C492.435 212.592 492.044 214.16 491.343 215.606C491.362 214.65 491.352 213.703 491.338 212.757C489.529 216.416 487.197 219.849 484.013 222.449C481.955 224.051 479.958 226.029 477.306 226.547C477.584 223.914 478.37 221.375 478.874 218.785C479.661 215.262 479.246 211.631 479.364 208.061C479.322 206.233 479.585 204.312 478.869 202.588C476.085 202.39 473.335 203.068 470.556 202.998C464.065 202.536 457.48 202.663 451.13 201.034C445.252 199.348 439.396 197.313 434.201 194.026C427.658 190.098 422.152 184.512 418.2 177.999C413.513 170.129 410.739 161.199 409.679 152.128C409.448 150.719 409.335 148.991 407.908 148.251C400.852 143.89 392.67 141.648 384.502 140.57C379.599 139.957 374.671 140.377 369.758 140.48C370.159 138.587 371.699 137.24 372.787 135.723C375.515 132.158 378.657 128.946 381.605 125.574C380.908 124.486 379.363 124.764 378.261 124.575C359.688 123.864 341.119 128.329 324.407 136.326C316.593 139.981 309.117 144.356 302.066 149.32C300.13 150.639 298.392 152.24 296.328 153.361C294.652 147.158 296.206 140.758 296.875 134.541C293.206 135.167 289.908 137.013 286.531 138.483C277.977 142.519 269.729 147.394 262.711 153.776C261.844 154.524 261.505 155.645 261.227 156.724C260.016 149.683 258.792 142.642 257.878 135.558C257.831 134.164 257.675 132.77 257.209 131.456C256.144 131.866 256.201 133.147 256.06 134.098C255.998 136.166 255.513 138.182 255.198 140.221C254.844 144.917 253.629 149.49 253.05 154.157C252.668 156.281 252.428 158.429 252.004 160.548L251.844 160.153C251.928 158.415 252.343 156.649 251.985 154.93C250.713 152.904 248.514 151.732 246.742 150.201C239.682 144.606 231.669 140.343 223.426 136.774C221.226 135.832 219.059 134.748 216.718 134.216C217.321 139.19 218.508 144.149 218.212 149.198C218.117 150.564 217.844 151.939 217.223 153.173C213.718 150.983 210.52 148.327 207.024 146.118C191.372 135.996 173.788 128.536 155.304 125.687C150.034 125.079 144.739 124.387 139.421 124.5C136.986 124.547 134.4 124.321 132.167 125.494C134.588 128.352 137.268 130.99 139.548 133.98C141.041 136.015 143.189 137.72 143.844 140.263C138.729 140.725 133.5 139.774 128.47 141.097C121.15 142.515 114.004 145.049 107.645 148.972C106.274 149.744 106.114 151.426 105.846 152.815C104.612 161.161 101.856 169.309 97.5788 176.595C91.7568 186.372 82.4915 193.96 71.8695 197.991C66.9141 199.828 61.8363 201.51 56.5465 202.004C49.5846 203.45 42.4341 202.291 35.4203 202.89C34.1014 207.011 34.6714 211.48 35.0248 215.719C35.2792 219.478 36.3342 223.109 36.7911 226.834C33.3008 225.454 30.451 222.873 27.8367 220.25C25.5475 217.975 23.9648 215.145 22.5234 212.29C22.58 213.279 22.6601 214.278 22.7307 215.281L22.5139 215.639C21.3788 209.869 19.5746 204.114 19.8856 198.17C20.0362 192.071 19.8337 185.883 21.2703 179.906C22.7351 180.268 24.0448 181.05 25.4438 181.601C30.5593 183.692 35.995 184.856 41.4449 185.657C45.9529 185.817 50.4842 185.901 54.9921 185.595C59.6225 184.63 64.3422 183.721 68.577 181.517C76.9755 177.608 84.0506 171.202 89.2933 163.61C96.5615 153.305 101.036 141.3 104.286 129.196C105.436 128.212 107.315 128.315 108.318 127.039C109.76 125.612 108.954 123.445 108.987 121.674C110 120.93 110.989 120.106 111.592 118.985C114.682 113.644 115.37 107.083 114.018 101.116C113.519 98.7328 112.11 96.717 111.14 94.5269C112.647 93.1234 114.715 92.6099 116.637 92.0401C119.85 91.0934 123.283 91.5598 126.486 90.5894C126.543 88.0415 125.516 85.6442 124.781 83.2563C123.995 80.7036 122.516 78.4006 121.997 75.7724C130.552 74.8776 139.2 76.3045 147.443 78.5699C148.013 78.7772 148.583 78.5465 149.134 78.3909C149.878 78.5086 150.345 79.2951 150.933 79.7378C153.274 82.2199 156.765 83.5197 160.147 83.4209C166.953 82.6957 172.182 77.5008 175.95 72.1787C176.572 71.1144 178.145 69.8757 177.132 68.5994C174.876 65.5616 172.21 62.8533 169.709 60.0228C169.252 59.4435 168.56 58.8455 168.776 58.0258C186.167 51.0034 204.288 45.4836 222.917 42.9733C225.211 42.5259 227.553 42.5259 229.884 42.394C234.853 41.598 239.912 41.9419 244.929 41.8852C249.055 41.7907 253.115 42.6715 257.147 43.3499Z" fill="#C2C2CE" stroke="#C2C2CE"/>
<path d="M132.169 125.493C134.401 124.32 136.987 124.546 139.423 124.499C144.741 124.386 150.035 125.079 155.306 125.686C173.79 128.536 191.374 135.996 207.026 146.117C210.521 148.326 213.72 150.982 217.224 153.173C217.846 151.939 218.119 150.563 218.213 149.198C218.51 144.149 217.323 139.189 216.72 134.216C219.061 134.748 221.228 135.831 223.427 136.773C231.671 140.343 239.683 144.605 246.744 150.201C248.515 151.731 250.715 152.904 251.987 154.929C252.345 156.648 251.93 158.415 251.845 160.153C250.055 170.057 247.808 179.891 245.1 189.589C242.321 198.947 239.226 208.315 234.342 216.816C232.773 217.08 231.412 216.1 230.055 215.497C223.861 212.426 218.939 207.425 214.341 202.38C208.482 195.5 203.635 187.728 200.253 179.364C199.362 179.218 199.014 180.08 198.703 180.72C197.803 182.491 197.064 184.394 197.045 186.41C196.852 190.432 196.814 194.51 197.619 198.481C196.757 198.735 196.277 197.849 195.721 197.412C189.183 190.714 181.303 185.444 173.022 181.139C164.953 177.207 156.304 174.371 147.411 173.095C140.722 171.997 133.902 172.374 127.147 172.516C123.666 173.038 120.138 173.34 116.699 174.141C116.497 177.117 116.944 180.169 116.13 183.099C114.288 190.112 110.067 196.319 104.881 201.307C98.767 207.712 91.1552 212.497 83.1665 216.227C75.8229 219.548 67.8858 221.672 59.817 221.936C58.4415 222.011 57.0049 221.653 55.6813 222.086C61.5787 239.042 70.4201 254.899 80.9761 269.387C86.7745 277.281 93.2984 284.609 100.133 291.622C112.479 303.768 126.535 314.21 141.863 322.297C142.183 322.711 142.494 323.144 142.795 323.596C141.933 323.799 141.038 323.888 140.167 323.752C121.514 320.196 103.704 312.547 88.0747 301.795C80.4014 296.585 73.1664 290.722 66.4964 284.274C61.1502 279.032 55.8461 273.687 51.4185 267.63C48.4228 264.168 45.7379 260.457 43.1517 256.684C34.9086 245.546 28.0784 233.258 23.9286 220C23.4622 218.441 22.8641 216.906 22.7322 215.281C22.6616 214.277 22.5815 213.279 22.5249 212.29C23.9663 215.144 25.549 217.975 27.8382 220.249C30.4525 222.873 33.3023 225.454 36.7926 226.834C36.3357 223.108 35.2807 219.477 35.0263 215.719C34.6731 211.48 34.103 207.01 35.4219 202.889C42.4356 202.291 49.5861 203.45 56.548 202.004C61.8378 201.509 66.9156 199.828 71.871 197.991C82.4928 193.959 91.7583 186.372 97.5803 176.594C101.857 169.308 104.613 161.16 105.847 152.815C106.116 151.425 106.276 149.744 107.646 148.971C114.006 145.048 121.151 142.514 128.471 141.097C133.502 139.773 138.73 140.725 143.846 140.263C143.191 137.72 141.043 136.015 139.55 133.98C137.27 130.989 134.59 128.352 132.169 125.493Z" fill="white" stroke="white"/>
<path d="M324.405 136.327C341.118 128.33 359.686 123.865 378.259 124.577C379.361 124.765 380.906 124.487 381.604 125.575C378.655 128.947 375.513 132.159 372.786 135.725C371.698 137.241 370.157 138.588 369.757 140.482C374.67 140.378 379.597 139.959 384.501 140.571C392.668 141.65 400.85 143.892 407.906 148.253C409.334 148.992 409.447 150.721 409.677 152.129C410.737 161.2 413.512 170.13 418.198 178C422.15 184.514 427.657 190.099 434.199 194.027C439.395 197.315 445.25 199.349 451.128 201.035C457.478 202.665 464.063 202.538 470.554 202.999C473.333 203.07 476.084 202.392 478.868 202.59C479.584 204.313 479.32 206.235 479.362 208.062C479.245 211.632 479.659 215.264 478.873 218.787C478.369 221.377 477.582 223.916 477.304 226.548C479.956 226.03 481.953 224.052 484.012 222.451C487.196 219.851 489.528 216.417 491.336 212.758C491.35 213.705 491.36 214.651 491.341 215.607C488.581 225.215 484.643 234.479 479.641 243.136C474.897 251.18 469.235 258.636 463.442 265.946C462.905 266.558 462.316 267.128 461.765 267.731C456.051 275.068 449.258 281.502 442.32 287.672C429.475 298.679 415.075 307.99 399.437 314.518C391.429 318.017 383.012 320.49 374.538 322.586C373.761 322.835 372.998 322.543 372.282 322.284C375.183 320.367 378.349 318.865 381.297 317.004C397.077 307.283 411.425 295.174 423.46 281.064C435.594 267.015 445.712 251.214 453.319 234.272C455.067 230.297 456.786 226.294 458.114 222.154C456.899 221.547 455.396 222.069 454.073 221.937C444.511 221.627 435.128 218.754 426.701 214.289C419.042 210.248 411.858 205.086 406.225 198.464C402.287 194.126 399.244 188.913 397.732 183.233C396.95 180.355 397.27 177.345 397.242 174.406C388.952 171.962 380.191 172.301 371.637 172.466C351.622 174.152 332.338 183.195 318.117 197.367C317.543 197.814 317.067 198.629 316.233 198.525C316.954 194.074 317.223 189.511 316.619 185.032C316.106 182.936 315.423 180.76 314.01 179.097C313.822 179.135 313.44 179.21 313.251 179.243C312.163 183.152 310.147 186.703 308.174 190.217C303.59 197.932 297.853 204.992 290.962 210.766C288.159 213.064 285.074 215.042 281.739 216.479C281.047 216.808 280.269 216.888 279.52 216.841C276.821 212.617 275.027 207.874 273.194 203.225C267.612 188.187 264.197 172.452 261.225 156.726C261.503 155.647 261.842 154.526 262.709 153.777C269.727 147.396 277.975 142.521 286.529 138.485C289.906 137.015 293.204 135.169 296.873 134.543C296.204 140.759 294.65 147.16 296.327 153.363C298.39 152.242 300.128 150.641 302.064 149.322C309.116 144.358 316.591 139.982 324.405 136.327Z" fill="white" stroke="white"/>
<path d="M330.513 245.119C342.425 241.634 354.649 239.293 366.933 237.583C366.844 237.89 366.67 238.497 366.585 238.803C359.322 245.402 352.02 252.024 343.919 257.595C340.461 260.068 336.453 261.542 332.543 263.115C328.601 264.684 324.126 264.914 320.051 263.756C315.393 262.296 311.332 259.489 307.399 256.677C307.117 256.201 307.409 255.683 307.847 255.453C314.573 250.432 322.59 247.629 330.513 245.119Z" fill="white" stroke="white"/>
<path d="M147.137 237.802C151.762 238.099 156.317 239.055 160.877 239.846C172.271 241.984 183.642 244.646 194.382 249.087C198.018 250.641 201.631 252.346 204.834 254.691C205.461 255.176 206.266 255.643 206.351 256.533C203.492 258.987 200.195 260.918 196.813 262.566C191.904 264.992 185.969 265.086 180.924 262.995C177.476 261.539 173.878 260.334 170.769 258.205C162.742 252.883 155.644 246.336 148.456 239.969C147.843 239.347 146.656 238.853 147.137 237.802Z" fill="white" stroke="white"/>
<path d="M247.822 244.595C252.631 243.893 257.535 243.233 262.377 244.015C268.858 244.496 275.217 246.248 281.077 249.045C281.713 249.464 282.815 249.596 283.055 250.411C281.392 252.356 279.254 253.854 277.728 255.936C269.348 265.445 263.305 276.847 259.296 288.829C258.707 290.68 258.203 292.578 257.299 294.311C254.543 285.697 251.453 277.101 246.776 269.311C243.865 264.465 240.845 259.567 236.714 255.653C235.645 253.326 233.299 252.097 231.825 250.133C236.795 247.402 242.273 245.683 247.822 244.595Z" fill="#C2C2CE" stroke="#C2C2CE"/>
<path d="M229.084 261.907C231.416 259.589 233.828 257.277 236.715 255.652C240.846 259.566 243.865 264.464 246.776 269.311C251.454 277.101 254.544 285.696 257.299 294.31C258.204 292.577 258.708 290.679 259.297 288.828C263.305 276.846 269.349 265.444 277.728 255.935C285.279 261.37 291.492 268.581 296.061 276.667C300.922 284.909 304.248 293.962 306.678 303.193C306.975 304.469 307.39 305.736 307.441 307.064C307.498 307.79 307.578 308.515 307.733 309.245C308.186 309.179 308.633 309.08 309.076 308.939C309.241 308.477 309.378 308.016 309.491 307.549C309.995 305.11 311.031 302.83 311.747 300.456C312.821 297.15 313.348 293.675 314.568 290.429C315.506 291.023 315.572 292.186 315.911 293.152C318.973 302.185 321.356 311.468 322.76 320.911C323.565 326.888 323.843 333.02 322.835 338.987C323.311 343.255 322.185 347.46 321.125 351.553C317.498 365.084 309.33 377.772 297.281 385.228C296.306 386.052 295.468 384.813 294.738 384.295C287.112 377.452 277.978 372.205 268.077 369.478C264.662 368.616 261.195 367.745 257.648 367.891C251.567 367.594 245.623 369.304 239.956 371.343C231.906 374.574 224.487 379.312 218.053 385.119C217.577 385.755 216.748 385.486 216.225 385.086C204.68 377.701 196.654 365.574 192.928 352.509C191.759 348.1 190.535 343.588 191.001 338.987C190.539 336.5 190.37 333.971 190.163 331.451C190.568 318.561 193.686 305.91 197.699 293.697C198.123 292.558 198.297 291.291 199.042 290.306C199.226 290.283 199.593 290.241 199.777 290.217C199.876 291.649 199.904 293.104 200.417 294.475C201.628 299.076 202.937 303.668 204.708 308.091C204.821 308.712 205.481 308.698 205.985 308.736C206.512 304.37 207.986 300.197 209.192 295.991C213.422 283.478 219.451 271.171 229.084 261.907ZM252.155 320.704C249.004 321.241 245.914 322.291 243.22 324.029C239.607 326.204 236.512 329.605 235.632 333.825C234.798 337.353 235.961 341.106 238.133 343.928C240.248 346.527 241.83 349.546 244.289 351.868C247.959 355.273 252.33 358.005 257.177 359.371C258.816 359.865 260.338 358.782 261.77 358.132C266.372 355.594 270.432 352.071 273.583 347.865C275.157 345.656 277.309 343.852 278.435 341.337C280.225 337.701 279.905 333.156 277.733 329.751C276 326.69 273.051 324.566 269.985 322.983C264.511 320.223 258.133 319.766 252.155 320.704Z" fill="white" stroke="white"/>
<path d="M24.0625 260.43C27.6708 262.413 31.3826 264.241 35.2732 265.611C40.2991 267.231 45.457 269.03 50.8221 268.573C50.9728 268.338 51.2648 267.867 51.411 267.631C55.8389 273.688 61.1426 279.034 66.4888 284.276C73.1587 290.723 80.3939 296.587 88.0671 301.796C103.696 312.548 121.506 320.197 140.159 323.753C141.031 323.89 141.926 323.8 142.788 323.598C142.486 323.146 142.175 322.712 141.855 322.298C142.152 322.397 142.75 322.595 143.047 322.694C143.023 322.943 142.967 323.447 142.938 323.702C138.812 327.856 133.061 330.418 127.168 330.305C128.854 331.911 131.257 332.344 133.353 333.211C141.219 336.178 149.472 337.977 157.757 339.324C162.925 340.002 168.111 340.662 173.334 340.638C176.179 340.751 179.039 340.473 181.879 340.784C182.524 349.996 185.049 359.124 189.251 367.366C189.486 367.856 189.651 368.393 189.712 368.958C187.753 369.537 185.676 369.405 183.674 369.716C179.9 369.834 176.165 370.493 172.383 370.39C158.695 370.762 144.837 369.773 131.68 365.779C131.657 365.562 131.61 365.129 131.586 364.912C135.938 363.97 140.314 362.623 144.04 360.108C146.094 358.738 148.2 357.419 150.008 355.728C150.663 355.069 151.554 354.456 151.549 353.434C140.268 352.671 129.141 350.119 118.491 346.36C92.702 337.737 69.5741 321.841 51.5098 301.603C49.0463 298.57 46.3943 295.702 44.0296 292.593C37.6047 284.332 31.9098 275.506 26.9545 266.289C25.9466 264.358 24.6277 262.554 24.0625 260.43Z" fill="#C2C2CE" stroke="#C2C2CE"/>
<path d="M479.342 265.313C482.983 264.003 486.388 262.195 489.822 260.443C488.551 263.641 486.572 266.5 484.999 269.551C479.968 278.688 473.962 287.251 467.519 295.441C462.761 301.032 458.027 306.683 452.511 311.558C438.531 324.981 422.007 335.747 404.079 343.114C390.721 348.403 376.731 352.524 362.331 353.433C362.227 354.606 363.358 355.237 364.083 355.971C369.109 360.314 375.191 363.502 381.724 364.821C381.908 364.962 382.275 365.25 382.463 365.391C379.679 366.799 376.5 367.082 373.514 367.859C362.562 370.421 351.252 370.619 340.06 370.355C334.794 369.785 329.5 369.742 324.229 369.243C324.069 367.703 325.124 366.431 325.656 365.075C329.128 357.422 331.332 349.151 332.001 340.772C336.881 340.424 341.808 340.9 346.683 340.363C359.048 339.407 371.28 336.68 382.887 332.309C384.22 331.777 385.652 331.348 386.702 330.312C383.353 330.213 379.886 329.803 376.947 328.079C374.582 326.732 372.039 325.338 370.546 322.979C371.05 322.663 371.62 322.018 372.279 322.282C372.995 322.541 373.758 322.833 374.535 322.583C383.009 320.487 391.427 318.015 399.434 314.515C415.073 307.988 429.473 298.676 442.318 287.67C449.256 281.5 456.048 275.066 461.762 267.728C461.819 267.931 461.927 268.336 461.979 268.538C467.942 269.104 473.835 267.451 479.342 265.313Z" fill="#C2C2CE" stroke="#C2C2CE"/>
<path d="M307.438 307.064C307.767 307.333 308.111 307.597 308.469 307.86C308.723 307.785 309.232 307.63 309.486 307.55C309.373 308.016 309.237 308.477 309.072 308.939C308.629 309.08 308.182 309.179 307.729 309.245C307.574 308.515 307.494 307.79 307.438 307.064Z" fill="#8D8D8D" stroke="#8D8D8D"/>
<path d="M252.158 320.704C258.135 319.767 264.513 320.224 269.986 322.984C273.053 324.566 276.002 326.69 277.735 329.752C279.906 333.157 280.227 337.702 278.437 341.338C277.311 343.853 275.158 345.656 273.585 347.865C270.434 352.071 266.374 355.594 261.771 358.133C260.34 358.783 258.818 359.866 257.179 359.371C252.332 358.006 247.961 355.274 244.291 351.869C241.832 349.547 240.25 346.528 238.135 343.928C235.963 341.107 234.8 337.353 235.633 333.826C236.514 329.606 239.609 326.205 243.222 324.029C245.916 322.291 249.006 321.241 252.158 320.704ZM252.2 326.605C249.972 327.321 246.731 328.602 246.948 331.433C246.797 333.468 248.917 334.555 250.448 335.375C254.564 337.037 259.251 337.113 263.476 335.799C265.441 335.107 267.339 333.839 268.22 331.894C268.446 330.256 267.216 328.772 265.916 327.948C261.762 325.682 256.727 325.588 252.2 326.605Z" fill="#171730" stroke="#171730"/>
<path d="M252.2 326.606C256.727 325.589 261.762 325.683 265.916 327.949C267.217 328.773 268.446 330.257 268.22 331.896C267.339 333.841 265.441 335.108 263.476 335.8C259.251 337.114 254.564 337.039 250.448 335.376C248.917 334.557 246.797 333.468 246.948 331.434C246.731 328.603 249.972 327.322 252.2 326.606Z" fill="#C2C2CE" stroke="#C2C2CE"/>
</g>
<defs>
<clipPath id="clip0_3_2">
<rect width="512" height="399" fill="white"/>
</clipPath>
</defs>
</svg>
